<?xml version="1.0" standalone="no"?>
<!DOCTYPE svg PUBLIC "-//W3C//DTD SVG 20010904//EN"
 "http://www.w3.org/TR/2001/REC-SVG-20010904/DTD/svg10.dtd">
<svg version="1.0" xmlns="http://www.w3.org/2000/svg"
 width="700.000000pt" height="700.000000pt" viewBox="0 0 700.000000 700.000000"
 preserveAspectRatio="xMidYMid meet">
<metadata>
Created by potrace 1.11, written by Peter Selinger 2001-2013
</metadata>
<g transform="translate(0.000000,700.000000) scale(0.100000,-0.100000)"
fill="#000000" stroke="none">
<path d="M3295 6254 c-110 -85 -216 -167 -235 -182 -130 -101 -771 -599 -795
-618 -106 -82 -945 -733 -966 -749 -103 -78 -419 -326 -419 -329 0 -4 256
-203 765 -596 39 -29 93 -72 121 -94 28 -23 66 -52 84 -66 18 -14 45 -34 59
-46 14 -12 49 -39 77 -60 52 -40 119 -91 737 -572 194 -151 365 -284 381 -295
15 -12 42 -34 60 -48 17 -14 81 -63 141 -109 61 -46 112 -87 115 -90 3 -3 22
-18 43 -34 34 -25 40 -26 55 -14 9 8 280 219 602 469 322 250 592 459 600 466
8 7 102 79 207 161 106 82 207 161 225 175 43 34 405 313 441 341 16 11 34 26
40 31 7 6 30 24 52 40 22 17 42 32 45 35 5 6 122 96 282 218 54 41 100 78 103
82 3 5 -108 97 -247 205 -139 108 -260 201 -268 208 -12 10 -1042 809 -1290
1001 -36 28 -126 98 -200 156 -74 58 -162 125 -195 150 -33 25 -62 47 -65 50
-3 3 -52 41 -109 85 -56 44 -133 104 -170 132 -36 29 -68 53 -71 53 -3 0 -95
-70 -205 -156z"/>
<path d="M1117 3087 c-130 -100 -236 -185 -237 -188 0 -3 30 -29 68 -56 37
-28 108 -83 157 -122 50 -39 101 -79 115 -90 14 -10 104 -80 200 -155 96 -75
218 -169 270 -210 52 -40 392 -304 755 -585 363 -282 676 -524 695 -539 19
-15 57 -45 85 -67 27 -22 88 -69 135 -105 47 -35 94 -73 104 -82 11 -10 26
-18 33 -18 11 0 172 120 368 274 17 13 147 115 290 225 143 111 267 207 275
214 8 7 65 51 125 97 61 47 117 90 125 97 19 15 333 259 380 295 19 14 124 95
232 180 108 84 269 209 358 278 90 69 170 132 180 140 10 8 79 62 154 119 75
57 136 107 136 110 0 3 -42 38 -92 76 -50 39 -137 105 -192 148 -56 42 -121
92 -146 110 l-46 34 -184 -145 c-208 -162 -380 -297 -395 -309 -5 -5 -62 -49
-125 -98 -63 -50 -122 -95 -130 -102 -42 -34 -268 -211 -291 -228 -59 -44
-244 -190 -249 -195 -3 -3 -54 -44 -115 -91 -60 -47 -227 -177 -370 -289 -143
-111 -266 -207 -273 -213 -13 -10 -89 45 -352 256 -8 7 -87 68 -175 137 -88
69 -167 130 -175 137 -21 17 -413 325 -452 354 -26 20 -442 346 -557 437 -19
15 -102 80 -185 145 -83 65 -158 123 -166 130 -8 7 -33 26 -55 44 l-41 31
-237 -181z"/>
</g>
</svg>
