<svg aria-hidden="true" style="position: absolute; width: 0; height: 0; overflow: hidden;" version="1.1" xmlns="http://www.w3.org/2000/svg" xmlns:xlink="http://www.w3.org/1999/xlink">
<defs>
<symbol id="add" viewBox="0 0 32 32">
<title>add</title>
<path d="M25.313 17.313h-8v8h-2.625v-8h-8v-2.625h8v-8h2.625v8h8v2.625z"></path>
</symbol>
<symbol id="arrow_back" viewBox="0 0 32 32">
<title>arrow_back</title>
<path d="M26.688 14.688v2.625h-16.25l7.438 7.5-1.875 1.875-10.688-10.688 10.688-10.688 1.875 1.875-7.438 7.5h16.25z"></path>
</symbol>
<symbol id="call_received" viewBox="0 0 32 32">
<title>call_received</title>
<path d="M26.688 7.188l-15.5 15.5h8.813v2.625h-13.313v-13.313h2.625v8.813l15.5-15.5z"></path>
</symbol>
<symbol id="close" viewBox="0 0 32 32">
<title>close</title>
<path d="M25.313 8.563l-7.438 7.438 7.438 7.438-1.875 1.875-7.438-7.438-7.438 7.438-1.875-1.875 7.438-7.438-7.438-7.438 1.875-1.875 7.438 7.438 7.438-7.438z"></path>
</symbol>
<symbol id="compare_arrows" viewBox="0 0 32 32">
<title>compare_arrows</title>
<path d="M20.573 17.5l-6.073-6.073 6.073-6.073v4.573h10.646v3.001h-10.646v4.573zM11.427 19.072v-4.573l6.073 6.073-6.073 6.073v-4.573h-10.646v-3.001h10.646z"></path>
</symbol>
<symbol id="content_copy" viewBox="0 0 32 32">
<title>content_copy</title>
<path d="M25.313 28v-18.688h-14.625v18.688h14.625zM25.313 6.688c1.438 0 2.688 1.188 2.688 2.625v18.688c0 1.438-1.25 2.688-2.688 2.688h-14.625c-1.438 0-2.688-1.25-2.688-2.688v-18.688c0-1.438 1.25-2.625 2.688-2.625h14.625zM21.313 1.313v2.688h-16v18.688h-2.625v-18.688c0-1.438 1.188-2.688 2.625-2.688h16z"></path>
</symbol>
<symbol id="mode_edit" viewBox="0 0 32 32">
<title>mode_edit</title>
<path d="M27.625 9.375l-2.438 2.438-5-5 2.438-2.438c0.5-0.5 1.375-0.5 1.875 0l3.125 3.125c0.5 0.5 0.5 1.375 0 1.875zM4 23l14.75-14.75 5 5-14.75 14.75h-5v-5z"></path>
</symbol>
<symbol id="do_not_disturb_alt" viewBox="0 0 32 32">
<title>do_not_disturb_alt</title>
<path d="M16 26.688c5.875 0 10.688-4.813 10.688-10.688 0-2.375-0.875-4.688-2.313-6.563l-14.938 14.938c1.875 1.438 4.188 2.313 6.563 2.313zM5.313 16c0 2.375 0.875 4.688 2.313 6.563l14.938-14.938c-1.875-1.438-4.188-2.313-6.563-2.313-5.875 0-10.688 4.813-10.688 10.688zM16 2.688c7.313 0 13.313 6 13.313 13.313s-6 13.313-13.313 13.313-13.313-6-13.313-13.313 6-13.313 13.313-13.313z"></path>
</symbol>
<symbol id="expand_less" viewBox="0 0 32 32">
<title>expand_less</title>
<path d="M16 10.688l8 8-1.875 1.875-6.125-6.125-6.125 6.125-1.875-1.875z"></path>
</symbol>
<symbol id="expand_more" viewBox="0 0 32 32">
<title>expand_more</title>
<path d="M22.125 11.438l1.875 1.875-8 8-8-8 1.875-1.875 6.125 6.125z"></path>
</symbol>
<symbol id="explicit" viewBox="0 0 32 32">
<title>explicit</title>
<path d="M20 12v-2.688h-8v13.375h8v-2.688h-5.313v-2.688h5.313v-2.625h-5.313v-2.688h5.313zM25.313 4c1.438 0 2.688 1.25 2.688 2.688v18.625c0 1.438-1.25 2.688-2.688 2.688h-18.625c-1.438 0-2.688-1.25-2.688-2.688v-18.625c0-1.438 1.25-2.688 2.688-2.688h18.625z"></path>
</symbol>
<symbol id="fiber_smart_record" viewBox="0 0 32 32">
<title>fiber_smart_record</title>
<path d="M22.688 5.688c4.625 1.188 8 5.313 8 10.313s-3.375 9.125-8 10.313v-2.75c3.125-1.063 5.313-4.063 5.313-7.563s-2.188-6.5-5.313-7.563v-2.75zM1.313 16c0-5.875 4.813-10.688 10.688-10.688s10.688 4.813 10.688 10.688-4.813 10.688-10.688 10.688-10.688-4.813-10.688-10.688z"></path>
</symbol>
<symbol id="filter" viewBox="0 0 32 32">
<title>filter</title>
<path d="M28 22.688v-18.688h-18.688v18.688h18.688zM28 1.313c1.438 0 2.688 1.25 2.688 2.688v18.688c0 1.438-1.25 2.625-2.688 2.625h-18.688c-1.438 0-2.625-1.188-2.625-2.625v-18.688c0-1.438 1.188-2.688 2.625-2.688h18.688zM4 6.688v21.313h21.313v2.688h-21.313c-1.438 0-2.688-1.25-2.688-2.688v-21.313h2.688zM21.25 13.75l4.75 6.25h-14.688l3.688-4.688 2.625 3.125z"></path>
</symbol>
<symbol id="filter_none" viewBox="0 0 32 32">
<title>filter_none</title>
<path d="M28 22.688v-18.688h-18.688v18.688h18.688zM28 1.313c1.438 0 2.688 1.25 2.688 2.688v18.688c0 1.438-1.25 2.625-2.688 2.625h-18.688c-1.438 0-2.625-1.188-2.625-2.625v-18.688c0-1.438 1.188-2.688 2.625-2.688h18.688zM4 6.688v21.313h21.313v2.688h-21.313c-1.438 0-2.688-1.25-2.688-2.688v-21.313h2.688z"></path>
</symbol>
<symbol id="flip" viewBox="0 0 32 32">
<title>flip</title>
<path d="M25.313 28v-2.688h2.688c0 1.438-1.25 2.688-2.688 2.688zM25.313 17.313v-2.625h2.688v2.625h-2.688zM20 6.688v-2.688h2.688v2.688h-2.688zM25.313 22.688v-2.688h2.688v2.688h-2.688zM14.688 30.688v-29.375h2.625v29.375h-2.625zM25.313 4c1.438 0 2.688 1.25 2.688 2.688h-2.688v-2.688zM4 6.688c0-1.438 1.25-2.688 2.688-2.688h5.313v2.688h-5.313v18.625h5.313v2.688h-5.313c-1.438 0-2.688-1.25-2.688-2.688v-18.625zM25.313 12v-2.688h2.688v2.688h-2.688zM20 28v-2.688h2.688v2.688h-2.688z"></path>
</symbol>
<symbol id="games" viewBox="0 0 32 32">
<title>games</title>
<path d="M22 12h7.313v8h-7.313l-4-4zM12 22l4-4 4 4v7.313h-8v-7.313zM10 12l4 4-4 4h-7.313v-8h7.313zM20 10l-4 4-4-4v-7.313h8v7.313z"></path>
</symbol>
<symbol id="group_work" viewBox="0 0 32 32">
<title>group_work</title>
<path d="M21.313 23.313c1.813 0 3.375-1.5 3.375-3.313s-1.563-3.313-3.375-3.313-3.313 1.5-3.313 3.313 1.5 3.313 3.313 3.313zM12.688 10.688c0 1.813 1.5 3.313 3.313 3.313s3.313-1.5 3.313-3.313-1.5-3.375-3.313-3.375-3.313 1.563-3.313 3.375zM10.688 23.313c1.813 0 3.313-1.5 3.313-3.313s-1.5-3.313-3.313-3.313-3.375 1.5-3.375 3.313 1.563 3.313 3.375 3.313zM16 2.688c7.375 0 13.313 5.938 13.313 13.313s-5.938 13.313-13.313 13.313-13.313-5.938-13.313-13.313 5.938-13.313 13.313-13.313z"></path>
</symbol>
<symbol id="open_in_new" viewBox="0 0 32 32">
<title>open_in_new</title>
<path d="M18.688 4h9.313v9.313h-2.688v-4.75l-13.063 13.063-1.875-1.875 13.063-13.063h-4.75v-2.688zM25.313 25.313v-9.313h2.688v9.313c0 1.438-1.25 2.688-2.688 2.688h-18.625c-1.5 0-2.688-1.25-2.688-2.688v-18.625c0-1.438 1.188-2.688 2.688-2.688h9.313v2.688h-9.313v18.625h18.625z"></path>
</symbol>
<symbol id="layers" viewBox="0 0 32 32">
<title>layers</title>
<path d="M16 21.313c-4.001-3.103-7.988-6.22-12-9.313l12-9.313 12 9.313c-4.012 3.092-7.999 6.209-12 9.313zM16 24.75l9.813-7.688 2.188 1.688-12 9.313-12-9.313 2.188-1.688z"></path>
</symbol>
<symbol id="lens" viewBox="0 0 32 32">
<title>lens</title>
<path d="M16 2.688c7.375 0 13.313 5.938 13.313 13.313s-5.938 13.313-13.313 13.313-13.313-5.938-13.313-13.313 5.938-13.313 13.313-13.313z"></path>
</symbol>
<symbol id="notifications_none" viewBox="0 0 32 32">
<title>notifications_none</title>
<path d="M21.313 22.688v-8c0-3.313-2-6-5.313-6s-5.313 2.688-5.313 6v8h10.625zM24 21.313l2.688 2.688v1.313h-21.375v-1.313l2.688-2.688v-6.625c0-4.125 2.188-7.5 6-8.438v-0.938c0-1.125 0.875-2 2-2s2 0.875 2 2v0.938c3.813 0.938 6 4.375 6 8.438v6.625zM16 29.313c-1.438 0-2.688-1.188-2.688-2.625h5.375c0 1.438-1.25 2.625-2.688 2.625z"></path>
</symbol>
<symbol id="search" viewBox="0 0 32 32">
<title>search</title>
<path d="M12.688 18.688c3.313 0 6-2.688 6-6s-2.688-6-6-6-6 2.688-6 6 2.688 6 6 6zM20.688 18.688l6.625 6.625-2 2-6.625-6.625v-1.063l-0.375-0.375c-1.5 1.313-3.5 2.063-5.625 2.063-4.813 0-8.688-3.813-8.688-8.625s3.875-8.688 8.688-8.688 8.625 3.875 8.625 8.688c0 2.125-0.75 4.125-2.063 5.625l0.375 0.375h1.063z"></path>
</symbol>
<symbol id="tab_unselected" viewBox="0 0 32 32">
<title>tab_unselected</title>
<path d="M22.688 28v-2.688h2.625v2.688h-2.625zM17.313 28v-2.688h2.688v2.688h-2.688zM28 17.313v-2.625h2.688v2.625h-2.688zM28 28v-2.688h2.688c0 1.438-1.25 2.688-2.688 2.688zM6.688 6.688v-2.688h2.625v2.688h-2.625zM6.688 28v-2.688h2.625v2.688h-2.625zM12 6.688v-2.688h2.688v2.688h-2.688zM28 22.688v-2.688h2.688v2.688h-2.688zM28 4c1.438 0 2.688 1.25 2.688 2.688v5.313h-13.375v-8h10.688zM4 28c-1.438 0-2.688-1.25-2.688-2.688h2.688v2.688zM1.313 22.688v-2.688h2.688v2.688h-2.688zM12 28v-2.688h2.688v2.688h-2.688zM1.313 6.688c0-1.438 1.25-2.688 2.688-2.688v2.688h-2.688zM1.313 17.313v-2.625h2.688v2.625h-2.688zM1.313 12v-2.688h2.688v2.688h-2.688z"></path>
</symbol>
<symbol id="timelapse" viewBox="0 0 32 32">
<title>timelapse</title>
<path d="M16 26.688c5.875 0 10.688-4.813 10.688-10.688s-4.813-10.688-10.688-10.688-10.688 4.813-10.688 10.688 4.813 10.688 10.688 10.688zM16 2.688c7.375 0 13.313 5.938 13.313 13.313s-5.938 13.313-13.313 13.313-13.313-5.938-13.313-13.313 5.938-13.313 13.313-13.313zM21.625 10.375c3.125 3.125 3.188 8.125 0.063 11.25s-8.188 3.125-11.313 0l5.625-5.625v-8c2.063 0 4.063 0.813 5.625 2.375z"></path>
</symbol>
</defs>
</svg>
