<svg aria-hidden="true" style="position: absolute; width: 0; height: 0; overflow: hidden;" version="1.1" xmlns="http://www.w3.org/2000/svg" xmlns:xlink="http://www.w3.org/1999/xlink">
<defs>
<symbol id="close" viewBox="0 0 32 32">
<title>close</title>
<path d="M25.313 8.563l-7.438 7.438 7.438 7.438-1.875 1.875-7.438-7.438-7.438 7.438-1.875-1.875 7.438-7.438-7.438-7.438 1.875-1.875 7.438 7.438 7.438-7.438z"></path>
</symbol>
<symbol id="expand_less" viewBox="0 0 32 32">
<title>expand_less</title>
<path d="M16 10.688l8 8-1.875 1.875-6.125-6.125-6.125 6.125-1.875-1.875z"></path>
</symbol>
<symbol id="expand_more" viewBox="0 0 32 32">
<title>expand_more</title>
<path d="M22.125 11.438l1.875 1.875-8 8-8-8 1.875-1.875 6.125 6.125z"></path>
</symbol>
<symbol id="search" viewBox="0 0 32 32">
<title>search</title>
<path d="M12.688 18.688c3.313 0 6-2.688 6-6s-2.688-6-6-6-6 2.688-6 6 2.688 6 6 6zM20.688 18.688l6.625 6.625-2 2-6.625-6.625v-1.063l-0.375-0.375c-1.5 1.313-3.5 2.063-5.625 2.063-4.813 0-8.688-3.813-8.688-8.625s3.875-8.688 8.688-8.688 8.625 3.875 8.625 8.688c0 2.125-0.75 4.125-2.063 5.625l0.375 0.375h1.063z"></path>
</symbol>
</defs>
</svg>
