<svg aria-hidden="true" style="position: absolute; width: 0; height: 0; overflow: hidden;" version="1.1" xmlns="http://www.w3.org/2000/svg" xmlns:xlink="http://www.w3.org/1999/xlink">
<defs>
<symbol id="discord" viewBox="0 0 32 32">
<title>discord</title>
<path d="M26.963 0c1.875 0 3.387 1.516 3.476 3.3v28.7l-3.569-3.031-1.96-1.784-2.139-1.864 0.893 2.94h-18.717c-1.869 0-3.387-1.42-3.387-3.301v-21.653c0-1.784 1.52-3.303 3.393-3.303l22.009-0.004zM18.805 7.577h-0.040l-0.269 0.267c2.764 0.8 4.101 2.049 4.101 2.049-1.781-0.891-3.387-1.336-4.992-1.516-1.16-0.18-2.32-0.085-3.3 0h-0.267c-0.627 0-1.96 0.267-3.747 0.98-0.623 0.271-0.98 0.448-0.98 0.448s1.336-1.336 4.28-2.049l-0.18-0.18s-2.229-0.085-4.636 1.693c0 0-2.407 4.192-2.407 9.36 0 0 1.333 2.32 4.991 2.408 0 0 0.533-0.711 1.073-1.336-2.053-0.624-2.853-1.872-2.853-1.872s0.179 0.088 0.447 0.267h0.080c0.040 0 0.059 0.020 0.080 0.040v0.008c0.021 0.021 0.040 0.040 0.080 0.040 0.44 0.181 0.88 0.36 1.24 0.533 0.621 0.269 1.42 0.537 2.4 0.715 1.24 0.18 2.661 0.267 4.28 0 0.8-0.18 1.6-0.356 2.4-0.713 0.52-0.267 1.16-0.533 1.863-0.983 0 0-0.8 1.248-2.94 1.872 0.44 0.621 1.060 1.333 1.060 1.333 3.659-0.080 5.080-2.4 5.16-2.301 0-5.16-2.42-9.36-2.42-9.36-2.18-1.619-4.22-1.68-4.58-1.68l0.075-0.027zM19.029 13.461c0.937 0 1.693 0.8 1.693 1.78 0 0.987-0.76 1.787-1.693 1.787s-1.693-0.8-1.693-1.779c0.003-0.987 0.764-1.784 1.693-1.784zM12.972 13.461c0.933 0 1.688 0.8 1.688 1.78 0 0.987-0.76 1.787-1.693 1.787s-1.693-0.8-1.693-1.779c0-0.987 0.76-1.784 1.693-1.784z"></path>
</symbol>
<symbol id="waves" viewBox="0 0 32 32">
<title>waves</title>
<path d="M16 32c-8.837 0-16-7.163-16-16s7.163-16 16-16 16 7.163 16 16-7.163 16-16 16zM16 6l-10 10 10 10 10-10z"></path>
</symbol>
<symbol id="add" viewBox="0 0 32 32">
<title>add</title>
<path d="M25.313 17.313h-8v8h-2.625v-8h-8v-2.625h8v-8h2.625v8h8v2.625z"></path>
</symbol>
<symbol id="arrow_back" viewBox="0 0 32 32">
<title>arrow_back</title>
<path d="M26.688 14.688v2.625h-16.25l7.438 7.5-1.875 1.875-10.688-10.688 10.688-10.688 1.875 1.875-7.438 7.5h16.25z"></path>
</symbol>
<symbol id="call_received" viewBox="0 0 32 32">
<title>call_received</title>
<path d="M26.688 7.188l-15.5 15.5h8.813v2.625h-13.313v-13.313h2.625v8.813l15.5-15.5z"></path>
</symbol>
<symbol id="chat" viewBox="0 0 32 32">
<title>chat</title>
<path d="M24 10.688v-2.688h-16v2.688h16zM18.688 18.688v-2.688h-10.688v2.688h10.688zM8 12v2.688h16v-2.688h-16zM26.688 2.688c1.438 0 2.625 1.188 2.625 2.625v16c0 1.438-1.188 2.688-2.625 2.688h-18.688l-5.313 5.313v-24c0-1.438 1.188-2.625 2.625-2.625h21.375z"></path>
</symbol>
<symbol id="check_box" viewBox="0 0 32 32">
<title>check_box</title>
<path d="M13.313 22.688l12-12-1.875-1.938-10.125 10.125-4.75-4.75-1.875 1.875zM25.313 4c1.5 0 2.688 1.25 2.688 2.688v18.625c0 1.438-1.188 2.688-2.688 2.688h-18.625c-1.5 0-2.688-1.25-2.688-2.688v-18.625c0-1.438 1.188-2.688 2.688-2.688h18.625z"></path>
</symbol>
<symbol id="check_box_outline_blank" viewBox="0 0 32 32">
<title>check_box_outline_blank</title>
<path d="M25.313 4c1.438 0 2.688 1.25 2.688 2.688v18.625c0 1.438-1.25 2.688-2.688 2.688h-18.625c-1.438 0-2.688-1.25-2.688-2.688v-18.625c0-1.438 1.25-2.688 2.688-2.688h18.625zM25.313 6.688h-18.625v18.625h18.625v-18.625z"></path>
</symbol>
<symbol id="close" viewBox="0 0 32 32">
<title>close</title>
<path d="M25.313 8.563l-7.438 7.438 7.438 7.438-1.875 1.875-7.438-7.438-7.438 7.438-1.875-1.875 7.438-7.438-7.438-7.438 1.875-1.875 7.438 7.438 7.438-7.438z"></path>
</symbol>
<symbol id="compare_arrows" viewBox="0 0 32 32">
<title>compare_arrows</title>
<path d="M20.573 17.5l-6.073-6.073 6.073-6.073v4.573h10.646v3.001h-10.646v4.573zM11.427 19.072v-4.573l6.073 6.073-6.073 6.073v-4.573h-10.646v-3.001h10.646z"></path>
</symbol>
<symbol id="content_copy" viewBox="0 0 32 32">
<title>content_copy</title>
<path d="M25.313 28v-18.688h-14.625v18.688h14.625zM25.313 6.688c1.438 0 2.688 1.188 2.688 2.625v18.688c0 1.438-1.25 2.688-2.688 2.688h-14.625c-1.438 0-2.688-1.25-2.688-2.688v-18.688c0-1.438 1.25-2.625 2.688-2.625h14.625zM21.313 1.313v2.688h-16v18.688h-2.625v-18.688c0-1.438 1.188-2.688 2.625-2.688h16z"></path>
</symbol>
<symbol id="mode_edit" viewBox="0 0 32 32">
<title>mode_edit</title>
<path d="M27.625 9.375l-2.438 2.438-5-5 2.438-2.438c0.5-0.5 1.375-0.5 1.875 0l3.125 3.125c0.5 0.5 0.5 1.375 0 1.875zM4 23l14.75-14.75 5 5-14.75 14.75h-5v-5z"></path>
</symbol>
<symbol id="do_not_disturb_alt" viewBox="0 0 32 32">
<title>do_not_disturb_alt</title>
<path d="M16 26.688c5.875 0 10.688-4.813 10.688-10.688 0-2.375-0.875-4.688-2.313-6.563l-14.938 14.938c1.875 1.438 4.188 2.313 6.563 2.313zM5.313 16c0 2.375 0.875 4.688 2.313 6.563l14.938-14.938c-1.875-1.438-4.188-2.313-6.563-2.313-5.875 0-10.688 4.813-10.688 10.688zM16 2.688c7.313 0 13.313 6 13.313 13.313s-6 13.313-13.313 13.313-13.313-6-13.313-13.313 6-13.313 13.313-13.313z"></path>
</symbol>
<symbol id="expand_less" viewBox="0 0 32 32">
<title>expand_less</title>
<path d="M16 10.688l8 8-1.875 1.875-6.125-6.125-6.125 6.125-1.875-1.875z"></path>
</symbol>
<symbol id="expand_more" viewBox="0 0 32 32">
<title>expand_more</title>
<path d="M22.125 11.438l1.875 1.875-8 8-8-8 1.875-1.875 6.125 6.125z"></path>
</symbol>
<symbol id="fiber_smart_record" viewBox="0 0 32 32">
<title>fiber_smart_record</title>
<path d="M22.688 5.688c4.625 1.188 8 5.313 8 10.313s-3.375 9.125-8 10.313v-2.75c3.125-1.063 5.313-4.063 5.313-7.563s-2.188-6.5-5.313-7.563v-2.75zM1.313 16c0-5.875 4.813-10.688 10.688-10.688s10.688 4.813 10.688 10.688-4.813 10.688-10.688 10.688-10.688-4.813-10.688-10.688z"></path>
</symbol>
<symbol id="filter" viewBox="0 0 32 32">
<title>filter</title>
<path d="M28 22.688v-18.688h-18.688v18.688h18.688zM28 1.313c1.438 0 2.688 1.25 2.688 2.688v18.688c0 1.438-1.25 2.625-2.688 2.625h-18.688c-1.438 0-2.625-1.188-2.625-2.625v-18.688c0-1.438 1.188-2.688 2.625-2.688h18.688zM4 6.688v21.313h21.313v2.688h-21.313c-1.438 0-2.688-1.25-2.688-2.688v-21.313h2.688zM21.25 13.75l4.75 6.25h-14.688l3.688-4.688 2.625 3.125z"></path>
</symbol>
<symbol id="games" viewBox="0 0 32 32">
<title>games</title>
<path d="M22 12h7.313v8h-7.313l-4-4zM12 22l4-4 4 4v7.313h-8v-7.313zM10 12l4 4-4 4h-7.313v-8h7.313zM20 10l-4 4-4-4v-7.313h8v7.313z"></path>
</symbol>
<symbol id="indeterminate_check_box" viewBox="0 0 32 32">
<title>indeterminate_check_box</title>
<path d="M22.688 17.313v-2.625h-13.375v2.625h13.375zM25.313 4c1.438 0 2.688 1.25 2.688 2.688v18.625c0 1.438-1.25 2.688-2.688 2.688h-18.625c-1.438 0-2.688-1.25-2.688-2.688v-18.625c0-1.438 1.25-2.688 2.688-2.688h18.625z"></path>
</symbol>
<symbol id="open_in_new" viewBox="0 0 32 32">
<title>open_in_new</title>
<path d="M18.688 4h9.313v9.313h-2.688v-4.75l-13.063 13.063-1.875-1.875 13.063-13.063h-4.75v-2.688zM25.313 25.313v-9.313h2.688v9.313c0 1.438-1.25 2.688-2.688 2.688h-18.625c-1.5 0-2.688-1.25-2.688-2.688v-18.625c0-1.438 1.188-2.688 2.688-2.688h9.313v2.688h-9.313v18.625h18.625z"></path>
</symbol>
<symbol id="layers" viewBox="0 0 32 32">
<title>layers</title>
<path d="M16 21.313c-4.001-3.103-7.988-6.22-12-9.313l12-9.313 12 9.313c-4.012 3.092-7.999 6.209-12 9.313zM16 24.75l9.813-7.688 2.188 1.688-12 9.313-12-9.313 2.188-1.688z"></path>
</symbol>
<symbol id="notifications_none" viewBox="0 0 32 32">
<title>notifications_none</title>
<path d="M21.313 22.688v-8c0-3.313-2-6-5.313-6s-5.313 2.688-5.313 6v8h10.625zM24 21.313l2.688 2.688v1.313h-21.375v-1.313l2.688-2.688v-6.625c0-4.125 2.188-7.5 6-8.438v-0.938c0-1.125 0.875-2 2-2s2 0.875 2 2v0.938c3.813 0.938 6 4.375 6 8.438v6.625zM16 29.313c-1.438 0-2.688-1.188-2.688-2.625h5.375c0 1.438-1.25 2.625-2.688 2.625z"></path>
</symbol>
<symbol id="search" viewBox="0 0 32 32">
<title>search</title>
<path d="M12.688 18.688c3.313 0 6-2.688 6-6s-2.688-6-6-6-6 2.688-6 6 2.688 6 6 6zM20.688 18.688l6.625 6.625-2 2-6.625-6.625v-1.063l-0.375-0.375c-1.5 1.313-3.5 2.063-5.625 2.063-4.813 0-8.688-3.813-8.688-8.625s3.875-8.688 8.688-8.688 8.625 3.875 8.625 8.688c0 2.125-0.75 4.125-2.063 5.625l0.375 0.375h1.063z"></path>
</symbol>
<symbol id="tab_unselected" viewBox="0 0 32 32">
<title>tab_unselected</title>
<path d="M22.688 28v-2.688h2.625v2.688h-2.625zM17.313 28v-2.688h2.688v2.688h-2.688zM28 17.313v-2.625h2.688v2.625h-2.688zM28 28v-2.688h2.688c0 1.438-1.25 2.688-2.688 2.688zM6.688 6.688v-2.688h2.625v2.688h-2.625zM6.688 28v-2.688h2.625v2.688h-2.625zM12 6.688v-2.688h2.688v2.688h-2.688zM28 22.688v-2.688h2.688v2.688h-2.688zM28 4c1.438 0 2.688 1.25 2.688 2.688v5.313h-13.375v-8h10.688zM4 28c-1.438 0-2.688-1.25-2.688-2.688h2.688v2.688zM1.313 22.688v-2.688h2.688v2.688h-2.688zM12 28v-2.688h2.688v2.688h-2.688zM1.313 6.688c0-1.438 1.25-2.688 2.688-2.688v2.688h-2.688zM1.313 17.313v-2.625h2.688v2.625h-2.688zM1.313 12v-2.688h2.688v2.688h-2.688z"></path>
</symbol>
<symbol id="timelapse" viewBox="0 0 32 32">
<title>timelapse</title>
<path d="M16 26.688c5.875 0 10.688-4.813 10.688-10.688s-4.813-10.688-10.688-10.688-10.688 4.813-10.688 10.688 4.813 10.688 10.688 10.688zM16 2.688c7.375 0 13.313 5.938 13.313 13.313s-5.938 13.313-13.313 13.313-13.313-5.938-13.313-13.313 5.938-13.313 13.313-13.313zM21.625 10.375c3.125 3.125 3.188 8.125 0.063 11.25s-8.188 3.125-11.313 0l5.625-5.625v-8c2.063 0 4.063 0.813 5.625 2.375z"></path>
</symbol>
</defs>
</svg>
