<svg width="42" height="51" viewBox="0 0 42 51" fill="none" xmlns="http://www.w3.org/2000/svg">
<path d="M39.2285 6.03809H37.7588V42.1952C37.7588 44.5973 35.8062 46.5526 33.4074 46.5526H18.5159H6.67413V47.8929C6.67413 49.4277 7.91815 50.6734 9.45086 50.6734H24.3371H39.2233C40.756 50.6734 42 49.4277 42 47.8929V8.8186C42 7.2838 40.7612 6.03809 39.2285 6.03809Z" fill="#fff"/>
<path d="M18.5159 44.9758H33.4021C34.9348 44.9758 36.1788 43.7301 36.1788 42.1953V6.03814V3.12097C36.1788 1.58617 34.9348 0.340454 33.4021 0.340454H18.5159H13.5661V1.26028C13.5766 1.35489 13.5818 1.45476 13.5818 1.55463V7.61499V9.17081C13.5818 11.3311 11.8287 13.0867 9.67131 13.0867H8.11761H2.06549C1.98675 13.0867 1.90277 13.0814 1.82403 13.0761H0.858215V42.1953C0.858215 43.7301 2.10223 44.9758 3.63495 44.9758H6.67937H18.5159ZM19.0776 35.5252H9.37212C8.64776 35.5252 8.05987 34.9365 8.05987 34.2112C8.05987 33.4858 8.64776 32.8971 9.37212 32.8971H19.0828C19.8072 32.8971 20.3951 33.4858 20.3951 34.2112C20.3951 34.9365 19.8019 35.5252 19.0776 35.5252ZM28.7882 28.8184H9.37212C8.64776 28.8184 8.05987 28.2297 8.05987 27.5043C8.05987 26.779 8.64776 26.1903 9.37212 26.1903H28.7882C29.5126 26.1903 30.1005 26.779 30.1005 27.5043C30.1005 28.2297 29.5126 28.8184 28.7882 28.8184ZM9.37212 19.0682H28.7882C29.5126 19.0682 30.1005 19.6569 30.1005 20.3822C30.1005 21.1076 29.5126 21.6963 28.7882 21.6963H9.37212C8.64776 21.6963 8.05987 21.1076 8.05987 20.3822C8.05987 19.6569 8.64776 19.0682 9.37212 19.0682Z" fill="#fff"/>
<path d="M2.06549 11.5098H9.67131C9.67656 11.5098 9.68706 11.5098 9.69231 11.5098C10.9626 11.4993 11.9914 10.4691 12.0019 9.1971C12.0019 9.19184 12.0019 9.18133 12.0019 9.17607V1.55463C12.0019 0.850306 11.4245 0.382507 10.8261 0.382507C10.5374 0.382507 10.2487 0.487631 10.0072 0.729414L1.23614 9.51247C0.50128 10.2483 1.02093 11.5098 2.06549 11.5098Z" fill="#fff"/>
</svg>
