<svg width="39" height="50" viewBox="0 0 39 50" fill="none" xmlns="http://www.w3.org/2000/svg">
<path d="M27.1519 0.859375V11.7188H38.1311L27.1519 0.859375Z" fill="#fff"/>
<path d="M25.6709 14.6484C24.8514 14.6484 24.1899 13.9941 24.1899 13.1836V0H1.48101C0.661519 0 0 0.654297 0 1.46484V48.5352C0 49.3457 0.661519 50 1.48101 50H37.519C38.3385 50 39 49.3457 39 48.5352V14.6484H25.6709ZM6.04253 8.59375C6.75342 6.93359 8.39241 5.85938 10.219 5.85938C12.717 5.85938 14.7509 7.87109 14.7509 10.3418C14.7509 12.3047 13.4772 13.9648 11.7 14.5801V15.6152C11.7 16.4258 11.0385 17.0801 10.219 17.0801C9.39949 17.0801 8.73798 16.4258 8.73798 15.6152V13.3594C8.73798 12.5488 9.39949 11.8945 10.219 11.8945C11.0878 11.8945 11.7889 11.2012 11.7889 10.3418C11.7889 9.48242 11.0878 8.78906 10.219 8.78906C9.58709 8.78906 9.0243 9.16016 8.77747 9.73633C8.46152 10.4785 7.59266 10.8301 6.8324 10.5176C6.07215 10.1953 5.72658 9.33594 6.04253 8.59375ZM11.7 21.4746C11.7 21.8555 11.542 22.2363 11.2656 22.5098C10.9891 22.7832 10.6041 22.9395 10.219 22.9395C9.83392 22.9395 9.44886 22.7832 9.17241 22.5098C8.89595 22.2363 8.73798 21.8555 8.73798 21.4746C8.73798 21.0938 8.89595 20.7129 9.17241 20.4395C9.44886 20.166 9.83392 20.0098 10.219 20.0098C10.6041 20.0098 10.9891 20.166 11.2656 20.4395C11.542 20.7129 11.7 21.084 11.7 21.4746ZM31.5949 44.043H7.6519C6.83241 44.043 6.17089 43.3887 6.17089 42.5781C6.17089 41.7676 6.83241 41.1133 7.6519 41.1133H31.5949C32.4144 41.1133 33.076 41.7676 33.076 42.5781C33.076 43.3887 32.4144 44.043 31.5949 44.043ZM31.5949 38.1836H7.6519C6.83241 38.1836 6.17089 37.5293 6.17089 36.7188C6.17089 35.9082 6.83241 35.2539 7.6519 35.2539H31.5949C32.4144 35.2539 33.076 35.9082 33.076 36.7188C33.076 37.5293 32.4144 38.1836 31.5949 38.1836ZM31.5949 32.3242H7.6519C6.83241 32.3242 6.17089 31.6699 6.17089 30.8594C6.17089 30.0488 6.83241 29.3945 7.6519 29.3945H31.5949C32.4144 29.3945 33.076 30.0488 33.076 30.8594C33.076 31.6699 32.4144 32.3242 31.5949 32.3242Z" fill="#fff"/>
</svg>
